<svg width="18" height="18" viewBox="0 0 18 18" fill="none" xmlns="http://www.w3.org/2000/svg">
<g id="Email">
<path id="Fill 1" fill-rule="evenodd" clip-rule="evenodd" d="M14.7772 12.084C15.0072 12.237 15.0692 12.548 14.9162 12.777C14.8192 12.922 14.6612 13 14.4992 13C14.4042 13 14.3082 12.973 14.2222 12.916L11.2222 10.916C10.9922 10.763 10.9302 10.452 11.0842 10.223C11.2352 9.992 11.5462 9.931 11.7772 10.084L14.7772 12.084ZM6.91524 10.222C7.06924 10.451 7.00724 10.762 6.77724 10.916L3.78724 12.916C3.70224 12.973 3.60624 13 3.51024 13C3.34924 13 3.19024 12.922 3.09424 12.778C2.94024 12.549 3.00224 12.238 3.23224 12.084L6.22224 10.084C6.45124 9.932 6.76124 9.993 6.91524 10.222ZM14.9042 6.216C15.0672 6.439 15.0172 6.752 14.7932 6.914L9.29324 10.904C9.20624 10.968 9.10324 11 9.00024 11C8.89724 11 8.79424 10.969 8.70624 10.905L3.21624 6.925C2.99224 6.763 2.94324 6.449 3.10524 6.226C3.26724 6.002 3.57824 5.954 3.80324 6.114L9.00024 9.883L14.2062 6.105C14.4292 5.943 14.7432 5.992 14.9042 6.216ZM16.0002 13C16.0002 13.552 15.5512 14 15.0002 14H3.00024C2.44824 14 2.00024 13.552 2.00024 13V6C2.00024 5.448 2.44824 5 3.00024 5H15.0002C15.5512 5 16.0002 5.448 16.0002 6V13ZM15.0002 3H3.00024C1.34524 3 0.000244141 4.346 0.000244141 6V13C0.000244141 14.654 1.34524 16 3.00024 16H15.0002C16.6542 16 18.0002 14.654 18.0002 13V6C18.0002 4.346 16.6542 3 15.0002 3Z" fill="#333333"/>
</g>
</svg>
