<svg width="24" height="24" viewBox="0 0 24 24" fill="none" xmlns="http://www.w3.org/2000/svg">
<path fill-rule="evenodd" clip-rule="evenodd" d="M4.99064 17H19.0426C18.5026 16.172 17.9996 15.135 17.9996 13.917L18.0086 9.693C18.0076 6.607 15.2506 4 11.9886 4C8.74663 4 6.00864 6.608 6.00864 9.695V14.184C6.00864 15.278 5.52564 16.22 4.99064 17ZM2.12064 18.477C1.94664 18.155 1.96164 17.763 2.16064 17.456C2.31664 17.216 2.52163 16.952 2.74564 16.665C3.33764 15.908 4.00864 15.05 4.00864 14.184V9.695C4.00864 5.524 7.66263 2 11.9886 2C16.3356 2 20.0086 5.524 20.0086 9.695V9.697L19.9996 13.919C19.9996 15.006 20.7436 15.985 21.3416 16.772C21.5276 17.017 21.6976 17.243 21.8336 17.448C22.0366 17.755 22.0546 18.148 21.8806 18.473C21.7066 18.797 21.3676 19 20.9996 19H2.99964C2.63364 19 2.29564 18.799 2.12064 18.477ZM14.9996 20C15.5526 20 15.9996 20.448 15.9996 21C15.9996 21.552 15.5526 22 14.9996 22H8.99964C8.44764 22 7.99964 21.552 7.99964 21C7.99964 20.448 8.44764 20 8.99964 20H14.9996Z" fill="#FAFBFC"/>
</svg>
