<svg width="18" height="18" viewBox="0 0 18 18" fill="none" xmlns="http://www.w3.org/2000/svg">
<g id="Phone">
<path id="Fill 1" fill-rule="evenodd" clip-rule="evenodd" d="M12.5692 13.6672C12.3262 13.9102 11.9722 14.0142 11.6232 13.9372C7.61824 13.0872 4.99124 10.4812 4.02724 6.40018C3.94424 6.05118 4.04624 5.68118 4.29124 5.43518L5.74324 3.98118L7.24924 5.48718L6.30424 6.43118C6.05224 6.68318 5.95324 7.05018 6.04524 7.39518C6.65524 9.69318 8.26624 11.3062 10.5782 11.9362C10.9232 12.0282 11.2942 11.9332 11.5482 11.6782L12.4912 10.7342L13.9952 12.2392L12.5692 13.6672ZM13.9052 9.32018C13.1262 8.54118 11.8572 8.54118 11.0762 9.32018L10.5682 9.82918C9.41724 9.37818 8.59324 8.55518 8.15024 7.41318L8.66224 6.90118C9.44224 6.12218 9.44224 4.85418 8.66324 4.07318L7.15924 2.56818C6.40324 1.81118 5.08324 1.81118 4.32824 2.56718L2.87624 4.02118C2.14524 4.75418 1.84024 5.84218 2.08124 6.86018C3.21924 11.6792 6.46124 14.8872 11.2082 15.8942C11.4232 15.9382 11.6382 15.9612 11.8522 15.9612C12.6472 15.9612 13.4132 15.6512 13.9842 15.0812L15.4102 13.6532C16.1892 12.8732 16.1892 11.6052 15.4102 10.8252L13.9052 9.32018Z" fill="#333333"/>
</g>
</svg>
